<svg id="Capa_1" enable-background="new 0 0 511.984 511.984" height="512" viewBox="0 0 511.984 511.984" width="512" xmlns="http://www.w3.org/2000/svg"><g><g><path d="m235.852 76.599c9.063-13.595 31.217-13.595 40.28 0l48.343 72.518-68.482 28.408-68.482-28.408z" fill="#ffe1bd"/><path d="m268.436 77.367c1.23-1.833 2.635-3.467 4.162-4.864-10.365-9.343-28.705-7.966-36.746 4.096l-48.343 72.518 28.879 11.98c16.39-28.488 33.72-56.433 52.048-83.73z" fill="#ffd3a3"/><g><path d="m332.968 356.3 12.619-55.773-12.619-59.819h-153.959l-17.932 59.819 17.932 55.773z" fill="#ffe1bd"/><path d="m332.968 356.3 124.287-8-66.39-99.592-57.897-8z" fill="#fed2a4"/><path d="m179.009 240.708-57.89 8-66.39 99.592 124.28 8z" fill="#fff1ce"/><g><path d="m165.886 256.601c2.448-5.05 4.934-10.082 7.436-15.106l-52.202 7.214-66.391 99.591 69.67 4.485c11.314-33.053 26.385-65.035 41.487-96.184z" fill="#ffd3a3"/></g></g><path d="m255.992 348.3-18.284 51.67 18.284 45.612h225.06c18.131 0 29.376-17.518 20.14-31.373l-43.937-65.909h-124.287z" fill="#fff1ce"/><path d="m179.009 348.3h-124.28l-43.936 65.908c-9.236 13.855 2.009 31.373 20.14 31.373h225.06v-97.281z" fill="#fed2a4"/><path d="m105.921 440.743c1.865-31.806 9.48-62.56 20.042-92.443h-71.234l-43.936 65.908c-9.236 13.855 2.009 31.373 20.14 31.373h74.769c.056-1.613.124-3.226.219-4.838z" fill="#ffbd86"/><path d="m255.992 248.708h76.976 57.897l-66.39-99.591h-68.483l-18.283 49.796z" fill="#fff1ce"/><path d="m179.009 248.708h76.983v-99.591h-68.482l-66.391 99.591z" fill="#fed2a4"/><path d="m223.357 149.117h-35.847l-66.39 99.591h48.633c16.64-33.844 34.493-67.087 53.604-99.591z" fill="#ffbd86"/></g><g><path d="m507.432 410.048-43.937-65.908-66.39-99.591-66.391-99.591-48.343-72.518c-5.649-8.476-15.512-13.536-26.379-13.536-.001 0 0 0 0 0-10.868 0-20.73 5.061-26.381 13.536l-13.606 20.412c-2.297 3.447-1.366 8.103 2.08 10.401 3.446 2.296 8.103 1.366 10.401-2.081l13.606-20.412c2.862-4.293 8.058-6.856 13.899-6.856 5.842 0 11.037 2.563 13.899 6.856l40.569 60.858h-108.936l9.993-14.99c2.297-3.447 1.366-8.103-2.08-10.401-3.446-2.296-8.103-1.366-10.401 2.081l-17.766 26.65-66.387 99.586c-.001.002-.003.003-.004.005l-66.39 99.591-43.936 65.908c-5.535 8.302-6.053 18.463-1.388 27.181 5.233 9.778 15.874 15.853 27.768 15.853h450.119c11.895 0 22.534-6.074 27.768-15.852 4.666-8.719 4.148-18.88-1.387-27.182zm-11.837 20.103c-2.618 4.892-8.19 7.93-14.543 7.93h-217.56v-82.281h189.749l41.71 62.568c3.354 5.031 1.843 9.542.644 11.783zm-479.205 0c-1.199-2.241-2.71-6.752.644-11.783l41.71-62.568h189.749v82.282h-217.56c-6.353 0-11.925-3.039-14.543-7.931zm108.743-173.943h46.376v84.592h-102.767zm66.391-99.591h56.968v84.591h-113.359zm185.328 84.591h-113.36v-84.591h56.969zm66.389 99.592h-102.773v-84.591h46.384zm-187.249 0h-69.483v-84.591h138.958v84.591z"/></g></g></svg>